<?xml version="1.0" encoding="UTF-8" standalone="no"?>
<!-- Created with Serif DrawPlus 11, 0, 0, 18 (Mar 20, 15:09:53) (http://www.serif.com) -->
<svg version="1.1" xmlns="http://www.w3.org/2000/svg" xmlns:xlink="http://www.w3.org/1999/xlink" width="2267.72" height="2267.72">
	<g id="Layer_2">
		<path id="dp_path001" fill="white" fill-rule="evenodd" stroke="none" stroke-width="1.33333" d="M 1517.11,1006.68 C 1517.11,1006.68 1322,1186 992,1186 C 662,1186 464.545,983.133 464.545,983.133 L 1007.66,2064.72 Z "/>
		<path id="dp_path002" fill="white" fill-rule="evenodd" stroke="none" stroke-width="4.57467" d="M 1121.62,543.607 C 1098.18,590.14 1121.91,593.24 1103.99,642.273 C 1077.2,715.872 1034.6,743.016 977.585,795.719 C 942.959,827.716 907.727,904.367 937.135,939.312 C 970.545,964.075 1013.3,950.691 1016.66,950.167 C 1042.26,945.876 1106.36,911.401 1153.17,856.816 C 1173.95,832.588 1248.82,665.281 1143.23,557.621 C 1138.73,554.18 1126.04,539.971 1121.62,543.607 Z "/>
		<path id="dp_path003" fill="white" fill-rule="evenodd" stroke="none" stroke-width="4.46933" d="M 1040.48,507.904 C 997.008,500.299 969.387,516.905 937.173,538.833 C 890.863,570.335 847.3,623.915 827.56,677.773 C 797.813,758.965 810.575,830.428 828.245,859.189 C 857.555,907.056 910.736,939.564 912.435,927.587 C 915.719,904.668 900.364,835.319 933.945,778.972 C 976.983,706.681 1029.19,694.98 1057.67,667.104 C 1096,629.627 1126.55,527.715 1040.48,507.904 Z "/>
		<path id="dp_path004" fill="white" fill-rule="evenodd" stroke="white" stroke-width="1.33333" d="M 1579.56,748.123 C 1579.56,425.628 1318.12,164.193 995.625,164.193 C 673.129,164.193 411.695,425.628 411.695,748.123 C 411.695,1070.62 673.129,1332.05 995.625,1332.05 C 1318.12,1332.05 1579.56,1070.62 1579.56,748.123 Z M 1350.07,748.123 C 1350.07,552.368 1191.38,393.677 995.625,393.677 C 799.871,393.677 641.18,552.368 641.18,748.123 C 641.18,943.877 799.871,1102.57 995.625,1102.57 C 1191.38,1102.57 1350.07,943.877 1350.07,748.123 Z "/>
	</g>
</svg>